# xmcd
#
# Track frame offsets:
#	150
#	14812
#	29287
#	46315
#	58717
#	77382
#	89480
#	99397
#	111280
#	120912
#	132470
#	146290
#	160527
#	176380
#	198727
#	216095
#
# Disc length: 3162 seconds
#
# Revision: 1
# Processed by: cddbd v1.5.2PL0 Copyright (c) Steve Scherf et al.
# Submitted via: audiograbber 1.83.01
#
DISCID=d30c5810
DTITLE=Various Artist - Rosewood Alles Country oder was!? No.1
DYEAR=1900
DGENRE=Country
TTITLE0=Lousiana Ladies - Truck Stop
TTITLE1=You Can Stumble - Carry and Ron
TTITLE2=Falling In Love Tonight - Jill Morris
TTITLE3=1000 Und 2 Nächte - Mark XL Bender
TTITLE4=A Better Man - Just Country Band
TTITLE5=Zitrumental - Original Zitronentaler
TTITLE6=Rundummadum - Black Bottom Skiffle Group
TTITLE7=Bed Of Roses - Hillbillies
TTITLE8=Walk On Strings - Frank Baum
TTITLE9=Ich Sitze An Der Theke - Mark XL Bender
TTITLE10=Cowboys Sweetheart - Jill Morris
TTITLE11=So A Nacht - Original Zitronentaler
TTITLE12=I Dreamed Of An Angel - Waymore Clayton
TTITLE13=White Waters - (Torrential and Proud) - Kaktus
TTITLE14=Halt Mich - Just Country Band
TTITLE15='S Schwäbische Eisabähnle - Hillbillies
EXTD=
EXTT0=
EXTT1=
EXTT2=
EXTT3=
EXTT4=
EXTT5=
EXTT6=
EXTT7=
EXTT8=
EXTT9=
EXTT10=
EXTT11=
EXTT12=
EXTT13=
EXTT14=
EXTT15=
PLAYORDER=
